<svg xmlns="http://www.w3.org/2000/svg" viewBox="0 0 256 256"
     width="256" height="256" role="img" aria-label="Two ravens forming a monogram">
  <title>Two ravens forming a monogram</title>
  <rect width="256" height="256" fill="#ffffff"/>
  <g fill="#000000">
    <path d="M40 208V72l44 56 44-56v136h-22v-72l-22 28-22-28v72z"/>
    <path d="M144 208V72l44 56 44-56v136h-22v-72l-22 28-22-28v72z" opacity="0"/>
    <path d="M170 60c-16-10-38-6-48 10-8 13-4 30 9 38l-18 6 23 3-11 12 21-7 5 50h16l-5-54 20-11z"/>
  </g>
  <circle cx="146" cy="76" r="5" fill="#e01b1b"/>
  <circle cx="76" cy="102" r="5" fill="#e01b1b"/>
</svg>
